<?xml version="1.0" standalone="no"?>
<!DOCTYPE svg PUBLIC "-//W3C//DTD SVG 20010904//EN"
 "http://www.w3.org/TR/2001/REC-SVG-20010904/DTD/svg10.dtd">
<svg version="1.0" xmlns="http://www.w3.org/2000/svg"
 width="260.000000pt" height="260.000000pt" viewBox="0 0 260.000000 260.000000"
 preserveAspectRatio="xMidYMid meet">
<metadata>
Created by potrace 1.11, written by Peter Selinger 2001-2013
</metadata>
<g transform="translate(0.000000,260.000000) scale(0.100000,-0.100000)"
fill="#000000" stroke="none">
<path d="M0 1300 l0 -1300 1300 0 1300 0 0 1300 0 1300 -1300 0 -1300 0 0
-1300z m1371 1201 c29 -29 29 -30 29 -150 0 -72 -5 -131 -12 -146 -11 -25 -54
-55 -78 -55 -27 0 -78 33 -89 56 -17 39 -14 239 5 275 28 56 99 65 145 20z
m-733 -405 c70 -71 92 -99 92 -120 0 -65 -59 -116 -117 -101 -38 9 -191 162
-202 202 -11 39 12 92 49 111 47 24 79 8 178 -92z m1539 73 c30 -29 38 -71 19
-106 -17 -33 -151 -166 -184 -183 -33 -17 -77 -3 -108 33 -42 49 -30 86 58
175 40 41 87 83 103 93 36 24 78 19 112 -12z m-662 -243 c203 -70 350 -216
421 -421 25 -71 28 -94 28 -205 0 -110 -3 -135 -27 -207 -65 -195 -217 -348
-419 -421 -66 -24 -86 -27 -213 -27 -120 0 -149 4 -205 23 -320 113 -509 433
-446 752 52 260 252 468 507 525 100 23 255 14 354 -19z m-1094 -565 c39 -39
39 -80 0 -123 l-29 -33 -132 0 -132 0 -29 33 c-39 43 -39 84 0 123 l29 29 132
0 132 0 29 -29z m2090 0 c39 -39 39 -80 0 -123 l-29 -33 -132 0 -132 0 -29 33
c-39 43 -39 84 0 123 l29 29 132 0 132 0 29 -29z m-1808 -672 c50 -54 41 -79
-71 -191 -83 -83 -103 -98 -130 -98 -36 0 -90 43 -93 75 -4 53 4 69 76 144
112 117 159 132 218 70z m1399 -46 c44 -43 86 -91 95 -106 20 -39 9 -80 -30
-113 -52 -44 -85 -31 -189 74 -70 70 -90 95 -95 124 -5 32 -1 41 25 68 24 24
39 30 72 30 39 0 48 -6 122 -77z m-752 -208 c16 -8 34 -24 40 -34 5 -11 10
-77 10 -146 0 -127 0 -127 -29 -156 -46 -45 -117 -35 -146 20 -18 36 -21 236
-4 275 11 24 60 55 87 56 7 0 26 -7 42 -15z"/>
<path d="M1181 1754 c-229 -62 -382 -296 -343 -526 26 -157 124 -287 268 -355
69 -33 87 -37 178 -41 85 -3 111 -1 165 17 284 97 414 415 274 673 -104 191
-331 289 -542 232z"/>
</g>
</svg>
