<?xml version="1.0" standalone="no"?>
<!DOCTYPE svg PUBLIC "-//W3C//DTD SVG 20010904//EN"
 "http://www.w3.org/TR/2001/REC-SVG-20010904/DTD/svg10.dtd">
<svg version="1.0" xmlns="http://www.w3.org/2000/svg"
 width="260.000000pt" height="260.000000pt" viewBox="0 0 260.000000 260.000000"
 preserveAspectRatio="xMidYMid meet">
<metadata>
Created by potrace 1.11, written by Peter Selinger 2001-2013
</metadata>
<g transform="translate(0.000000,260.000000) scale(0.100000,-0.100000)"
fill="#000000" stroke="none">
<path d="M0 1300 l0 -1300 1300 0 1300 0 0 1300 0 1300 -1300 0 -1300 0 0
-1300z m1357 1006 c28 -24 28 -26 28 -135 0 -101 -2 -112 -22 -133 -31 -31
-89 -30 -114 1 -16 20 -19 41 -19 136 0 111 1 114 26 134 35 28 67 26 101 -3z
m-615 -334 c66 -67 78 -83 78 -112 0 -46 -33 -80 -79 -80 -30 0 -45 10 -113
78 -63 63 -78 84 -78 109 0 42 40 83 81 83 27 0 46 -13 111 -78z m1293 53 c46
-45 36 -78 -53 -167 -69 -69 -83 -78 -114 -78 -44 0 -78 36 -78 84 0 25 14 44
79 108 90 88 122 98 166 53z m-613 -186 c195 -40 372 -210 422 -405 49 -192
-5 -387 -148 -530 -112 -112 -235 -164 -389 -164 -156 0 -279 52 -393 165
-221 218 -220 560 1 780 135 136 321 192 507 154z m-861 -488 c31 -25 32 -83
1 -114 -21 -20 -32 -22 -133 -22 -109 0 -111 0 -135 28 -29 34 -31 66 -3 101
20 25 23 26 134 26 95 0 116 -3 136 -19z m1758 -7 c28 -35 26 -67 -3 -101 -24
-28 -26 -28 -135 -28 -101 0 -112 2 -133 22 -31 31 -30 89 1 114 20 16 41 19
136 19 111 0 114 -1 134 -26z m-1524 -559 c46 -45 36 -78 -53 -167 -89 -89
-122 -99 -167 -53 -45 44 -35 76 53 166 65 67 83 79 110 79 22 0 41 -9 57 -25z
m1187 -53 c89 -89 99 -122 53 -167 -45 -46 -78 -36 -167 53 -89 89 -99 122
-53 167 45 46 78 36 167 -53z m-625 -176 c28 -24 28 -26 28 -136 0 -110 0
-112 -28 -136 -34 -29 -66 -31 -101 -3 -25 20 -26 24 -26 130 0 116 8 145 43
159 36 14 54 11 84 -14z"/>
<path d="M1182 1672 c-227 -81 -334 -331 -235 -545 40 -84 106 -150 191 -190
62 -30 75 -32 172 -32 96 0 110 3 165 29 77 38 153 114 191 191 26 55 29 69
29 165 0 97 -2 110 -32 172 -40 86 -106 151 -191 191 -86 40 -207 48 -290 19z"/>
</g>
</svg>
