<?xml version="1.0" encoding="utf-8"?>
<!-- Generator: Adobe Illustrator 22.1.0, SVG Export Plug-In . SVG Version: 6.00 Build 0)  -->
<svg version="1.1" id="Layer_2" xmlns="http://www.w3.org/2000/svg" xmlns:xlink="http://www.w3.org/1999/xlink" x="0px" y="0px"
	 width="150px" height="150px" viewBox="0 0 150 150" style="enable-background:new 0 0 150 150;" xml:space="preserve">
<style type="text/css">
	.st0{fill:#FBD208;}
</style>
<g>
	<g>
		<path class="st0" d="M131.6,96.9c-0.2-1-0.6-1.9-1.3-2.6c-1.6-1.6-3.4-1.9-5.6-1c-5.7,2.6-11.5,3.9-17.6,3.9
			c-7.6,0-14.6-1.9-21.1-5.6c-6.4-3.8-11.5-8.8-15.3-15.3c-3.8-6.4-5.6-13.4-5.6-21.1c0-5.9,1.2-11.5,3.5-16.9
			c2.3-5.3,5.7-10,10.1-14c1.7-1.6,2.1-3.4,1.2-5.6c-0.9-2.1-2.4-3.1-4.7-3c-7.9,0.3-15.3,2.1-22.4,5.3c-7,3.2-13.1,7.4-18.2,12.7
			c-5.1,5.2-9.1,11.5-12,18.6c-3,7.2-4.4,14.7-4.4,22.6c0,8,1.6,15.7,4.7,23c3.1,7.3,7.4,13.6,12.6,18.9c5.3,5.3,11.6,9.5,18.9,12.6
			c7.3,3.1,15,4.7,23,4.7c11.5,0,22.1-3.1,31.9-9.4c9.7-6.2,17-14.6,21.9-25C131.7,98.9,131.8,97.9,131.6,96.9L131.6,96.9z
			 M98.6,119.6c-6.7,3.2-13.7,4.7-21.1,4.7c-6.7,0-13.1-1.3-19.2-3.9c-6.1-2.6-11.3-6.1-15.7-10.5c-4.4-4.4-7.9-9.6-10.5-15.7
			C29.5,88,28.2,81.7,28.2,75c0-11.1,3.3-20.9,9.8-29.6c6.6-8.7,15-14.6,25.3-17.7c-5.3,8.5-8,17.7-8,27.5c0,9.4,2.3,18,6.9,26
			c4.6,8,10.9,14.3,18.9,18.9c8,4.6,16.6,6.9,26,6.9c2.9,0,5.7-0.2,8.5-0.7C110.9,112,105.3,116.4,98.6,119.6L98.6,119.6z
			 M98.6,119.6"/>
	</g>
</g>
</svg>
