<?xml version="1.0" encoding="utf-8"?>
<!-- Generator: Adobe Illustrator 21.0.0, SVG Export Plug-In . SVG Version: 6.00 Build 0)  -->
<svg version="1.1" id="Layer_1" xmlns="http://www.w3.org/2000/svg" xmlns:xlink="http://www.w3.org/1999/xlink" x="0px" y="0px"
	 width="150px" height="150px" viewBox="0 0 150 150" style="enable-background:new 0 0 150 150;" xml:space="preserve">
<style type="text/css">
	.st0{fill:#FFFFFF;}
</style>
<path class="st0" d="M147.4,55.6c0-13.9-11.3-25.2-25.2-25.2c-0.7,0-1.3,0-2,0.1c-6.5-8.2-16.4-13-27.1-13s-20.5,4.8-27.1,13
	c-0.7-0.1-1.3-0.1-2-0.1c-13.9,0-25.2,11.3-25.2,25.2c0,1.5,0.2,2.9,0.4,4.3c-0.2,0.2-0.3,0.4-0.5,0.6c-1.5-0.2-3-0.3-4.5-0.3
	c-17.5,0-31.7,14.2-31.7,31.7s14.2,31.7,31.7,31.7c3.9,0,7.7-0.7,11.2-2.1c8.2,7.1,18.6,11.1,29.5,11.1s21.3-4,29.5-11.1
	c3.6,1.4,7.4,2.1,11.2,2.1c17.5,0,31.7-14.2,31.7-31.7c0-7.3-2.6-13.9-6.7-19.2C144.8,68.1,147.4,62.2,147.4,55.6L147.4,55.6z
	 M115.7,114.4c-4.8,0-9.3-1.6-13-4.1c-6.6,8-16.5,13.2-27.7,13.2s-21.1-5.2-27.7-13.2c-3.7,2.6-8.1,4.1-13,4.1
	c-12.5,0-22.6-10.1-22.6-22.6s10.1-22.6,22.6-22.6c3.1,0,6,0.6,8.6,1.7c0.2-0.3,0.4-0.6,0.5-0.9c1.6-2.9,3.6-5.6,5.8-7.9
	c6.5-6.8,15.6-11,25.8-11c14.1,0,26.1,8.1,32.1,19.8c1.6-0.7,3.3-1.1,5.1-1.4l3.6-0.4c3.5,0,6.7,0.9,9.7,2.3
	c3.2,1.5,5.9,3.8,8.1,6.6c3,3.8,4.8,8.6,4.8,13.8C138.3,104.3,128.2,114.4,115.7,114.4z M134.2,66.2c-5.2-3.8-11.6-6.1-18.5-6.1
	c-1.5,0-3,0.1-4.5,0.3C102.8,48.9,89.5,42,75,42c-9.6,0-18.7,3.1-26.3,8.6c2.1-6.5,8.1-11.2,15.3-11.2c2.2,0,4.3,0.4,6.1,1.2
	C74.4,32.2,83,26.5,93,26.5s18.6,5.8,22.9,14.1c1.9-0.8,4-1.2,6.1-1.2c8.9,0,16.2,7.2,16.2,16.2C138.3,59.7,136.8,63.4,134.2,66.2z"
	/>
</svg>
