<?xml version="1.0" encoding="utf-8"?>
<!-- Generator: Adobe Illustrator 21.0.0, SVG Export Plug-In . SVG Version: 6.00 Build 0)  -->
<svg version="1.1" id="Layer_1" xmlns="http://www.w3.org/2000/svg" xmlns:xlink="http://www.w3.org/1999/xlink" x="0px" y="0px"
	 width="150px" height="150px" viewBox="0 0 150 150" style="enable-background:new 0 0 150 150;" xml:space="preserve">
<style type="text/css">
	.st0{fill:#9BDAF3;}
	.st1{fill:#FFFFFF;}
</style>
<path class="st0" d="M44.2,77h2.7v25.4h-2.7V77z M31.6,108.4h2.7v25.4h-2.7L31.6,108.4z M60,114.4h2.7v25.4H60V114.4z M94.4,101.7
	h2.7v25.4h-2.7V101.7z M119.3,114.4h2.7v25.4h-2.7V114.4z M17.4,86.7h2.7v25.4h-2.7V86.7z M73.6,86.6h2.7V112h-2.7V86.6z M108.4,77
	h2.7v17h-2.7V77z M128.9,79.3h2.7v25.4h-2.7V79.3z"/>
<path class="st1" d="M115.7,22.1c-1.5,0-3,0.1-4.5,0.3C102.8,10.9,89.5,4,75,4s-27.8,6.9-36.3,18.4c-1.5-0.2-3-0.3-4.5-0.3
	c-17.5,0-31.7,14.2-31.7,31.7s14.2,31.7,31.7,31.7c3.9,0,7.7-0.7,11.2-2.1c8.2,7.1,18.6,11.1,29.5,11.1s21.3-4,29.5-11.1
	c3.6,1.4,7.4,2.1,11.2,2.1c17.5,0,31.7-14.2,31.7-31.7S133.2,22.1,115.7,22.1z M115.7,76.4c-4.8,0-9.3-1.6-13-4.1
	c-6.6,8-16.5,13.2-27.7,13.2s-21.1-5.2-27.7-13.2c-3.7,2.6-8.2,4.1-13,4.1c-12.5,0-22.6-10.1-22.6-22.6s10.1-22.6,22.6-22.6
	c3.1,0,6,0.6,8.6,1.7C48.9,21.2,61,13.1,75,13.1c14.1,0,26.1,8.1,32.1,19.8c2.7-1.1,5.6-1.7,8.6-1.7c12.5,0,22.6,10.1,22.6,22.6
	S128.2,76.4,115.7,76.4z"/>
<path class="st0" d="M103.1,117c0,2.9,2.4,5.3,5.3,5.3s5.3-2.4,5.3-5.3s-5.3-10.6-5.3-10.6S103.1,114.1,103.1,117z M75.6,129.7
	c0,2.9,2.4,5.3,5.3,5.3s5.3-2.4,5.3-5.3s-5.3-10.6-5.3-10.6S75.6,126.8,75.6,129.7z M41.9,121.8c0,2.9,2.4,5.3,5.3,5.3
	s5.3-2.4,5.3-5.3s-5.3-10.6-5.3-10.6S41.9,118.9,41.9,121.8z"/>
</svg>
