<?xml version="1.0" encoding="utf-8"?>
<!-- Generator: Adobe Illustrator 21.0.0, SVG Export Plug-In . SVG Version: 6.00 Build 0)  -->
<svg version="1.1" id="Layer_1" xmlns="http://www.w3.org/2000/svg" xmlns:xlink="http://www.w3.org/1999/xlink" x="0px" y="0px"
	 width="150px" height="150px" viewBox="0 0 150 150" style="enable-background:new 0 0 150 150;" xml:space="preserve">
<style type="text/css">
	.st0{fill:#FFFFFF;}
</style>
<path class="st0" d="M124.2,39c0,3.3-2.7,6-6,6H28.5c-3.3,0-6-2.7-6-6v-0.3c0-3.3,2.7-6,6-6h89.8c3.3,0,6,2.7,6,6V39H124.2z
	 M48.2,63c0,3.3-2.7,6-6,6H12c-3.3,0-6-2.7-6-6v-1c0-3.3,2.7-6,6-6h30.2c3.3,0,6,2.7,6,6V63z M130.9,63c0,3.3-2.7,6-6,6H60
	c-3.3,0-6-2.7-6-6v-1c0-3.3,2.7-6,6-6h64.9c3.3,0,6,2.7,6,6V63z M145.3,87c0,3.3-2.7,6-6,6H38.5c-3.3,0-6-2.7-6-6v-1
	c0-3.3,2.7-6,6-6h100.8c3.3,0,6,2.7,6,6V87z M98.4,109.7c0,3.3-2.7,6-6,6H17.5c-3.3,0-6-2.7-6-6v-1c0-3.3,2.7-6,6-6h74.9
	c3.3,0,6,2.7,6,6V109.7z M132.6,109.7c0,3.3-2.7,6-6,6h-16.4c-3.3,0-6-2.7-6-6v-1c0-3.3,2.7-6,6-6h16.4c3.3,0,6,2.7,6,6V109.7z"/>
</svg>
