<svg id="gear" xmlns="http://www.w3.org/2000/svg" viewBox="0 0 50 49.99"><defs><style>.cls-1{fill:#328dc9;}</style></defs><title>gear</title><path class="cls-1" d="M3.58,20.26a3.39,3.39,0,0,0-3,3.34L.5,27a3.38,3.38,0,0,0,3,3.4L6,30.75a19,19,0,0,0,1.79,4.38l-1.63,2a3.39,3.39,0,0,0,.2,4.5l2.4,2.45a3.39,3.39,0,0,0,4.5.32l2-1.56a19.82,19.82,0,0,0,4.51,2L20,47.42a3.38,3.38,0,0,0,3.33,3l3.43,0a3.36,3.36,0,0,0,3.4-3l.32-2.47a20.59,20.59,0,0,0,4.88-1.9l1.9,1.53a3.37,3.37,0,0,0,4.5-.2l2.45-2.4a3.38,3.38,0,0,0,.31-4.5l-1.45-1.88A19.42,19.42,0,0,0,45.17,31l2.25-.23a3.38,3.38,0,0,0,3-3.33l0-3.44a3.38,3.38,0,0,0-3-3.4l-2.19-.28a20.48,20.48,0,0,0-1.86-4.75l1.37-1.68a3.39,3.39,0,0,0-.2-4.5l-2.4-2.45a3.39,3.39,0,0,0-4.5-.32L36.12,7.85a20.25,20.25,0,0,0-4.94-2.14L31,3.58a3.38,3.38,0,0,0-3.33-3L24.2.51a3.36,3.36,0,0,0-3.4,3l-.28,2.12a20.29,20.29,0,0,0-5.11,2.09L13.72,6.28a3.38,3.38,0,0,0-4.5.21L6.75,8.9a3.38,3.38,0,0,0-.31,4.5l1.45,1.87A19.69,19.69,0,0,0,6,20Zm22.14-3.88a8.92,8.92,0,1,1-9,8.81,8.94,8.94,0,0,1,9-8.81Zm0,0" transform="translate(-0.5 -0.51)"/></svg>