<?xml version="1.0" encoding="utf-8"?>
<!-- Generator: Adobe Illustrator 21.0.0, SVG Export Plug-In . SVG Version: 6.00 Build 0)  -->
<svg version="1.1" id="Layer_1" xmlns="http://www.w3.org/2000/svg" xmlns:xlink="http://www.w3.org/1999/xlink" x="0px" y="0px"
	 width="150px" height="150px" viewBox="0 0 150 150" style="enable-background:new 0 0 150 150;" xml:space="preserve">
<style type="text/css">
	.st0{fill:#FAD209;}
	.st1{fill:#FFFFFF;}
</style>
<path class="st0" d="M76.8,118.8c-25.5,0-46.3-20.8-46.3-46.3s20.8-46.3,46.3-46.3s46.3,20.8,46.3,46.3
	C123.1,98.1,102.3,118.8,76.8,118.8z M76.8,35.9c-20.2,0-36.7,16.4-36.7,36.7c0,20.2,16.4,36.7,36.7,36.7
	c20.2,0,36.7-16.4,36.7-36.7C113.4,52.3,97,35.9,76.8,35.9z"/>
<path class="st1" d="M6.5,52.5H71"/>
<path class="st1" d="M71,57.5H6.5c-2.8,0-5-2.2-5-5s2.2-5,5-5H71c2.8,0,5,2.2,5,5S73.7,57.5,71,57.5z M18.9,72.5h123.6"/>
<path class="st1" d="M142.5,77.5H18.9c-2.8,0-5-2.2-5-5s2.2-5,5-5h123.6c2.8,0,5,2.2,5,5S145.3,77.5,142.5,77.5z M6.5,93.3h123.6"/>
<path class="st1" d="M130.1,98.3H6.5c-2.8,0-5-2.2-5-5s2.2-5,5-5h123.6c2.8,0,5,2.2,5,5S132.9,98.3,130.1,98.3z"/>
</svg>
