<?xml version="1.0" encoding="utf-8"?>
<!-- Generator: Adobe Illustrator 21.0.0, SVG Export Plug-In . SVG Version: 6.00 Build 0)  -->
<svg version="1.1" id="Layer_1" xmlns="http://www.w3.org/2000/svg" xmlns:xlink="http://www.w3.org/1999/xlink" x="0px" y="0px"
	 width="150px" height="150px" viewBox="0 0 150 150" style="enable-background:new 0 0 150 150;" xml:space="preserve">
<style type="text/css">
	.st0{fill:#9BDAF3;}
	.st1{fill:#FFFFFF;}
</style>
<path class="st0" d="M94.4,128l-5-2.9c0.2-0.9,0.3-1.8,0.3-2.7c0-0.9-0.1-1.8-0.3-2.7l5-2.9c2.3-1.4,3.1-4.4,1.8-6.7
	c-1.4-2.4-4.4-3.2-6.7-1.8l-5.1,2.9c-1.4-1.2-2.9-2.1-4.6-2.7v-5.8c0-2.7-2.2-4.9-4.9-4.9S70,100,70,102.7v5.8
	c-1.7,0.6-3.2,1.5-4.6,2.7l-5.1-2.9c-2.4-1.4-5.4-0.6-6.7,1.8c-1.4,2.3-0.5,5.4,1.8,6.7l5,2.9c-0.2,0.9-0.3,1.8-0.3,2.7
	c0,0.9,0.1,1.8,0.3,2.7l-5,2.9c-2.4,1.4-3.2,4.4-1.8,6.7c1.4,2.4,4.4,3.2,6.7,1.8l5.1-2.9c1.4,1.1,2.9,2.1,4.6,2.7v5.8
	c0,2.7,2.2,4.9,4.9,4.9s4.9-2.2,4.9-4.9v-5.8c1.7-0.6,3.3-1.5,4.6-2.7l5.1,2.9c2.4,1.4,5.4,0.6,6.7-1.8
	C97.5,132.4,96.7,129.3,94.4,128z M74.8,127.3c-2.7,0-4.9-2.2-4.9-4.9s2.2-4.9,4.9-4.9s4.9,2.2,4.9,4.9
	C79.8,125.1,77.6,127.3,74.8,127.3z M135.6,114.7l-3.4-0.9c-0.1-1.1-0.3-2.1-0.8-3.1l2.4-2.4c1.1-1.1,1.1-3,0-4.1s-3-1.1-4.1,0
	l-2.4,2.4c-1-0.5-2-0.7-3.1-0.8l-0.9-3.4c-0.4-1.6-2-2.5-3.6-2.1s-2.5,2-2.1,3.6l0.9,3.3c-0.4,0.3-0.9,0.6-1.3,1s-0.7,0.8-1,1.2
	l-3.3-0.9c-1.6-0.4-3.2,0.5-3.6,2.1s0.5,3.2,2.1,3.6l3.3,0.9c0.1,1.1,0.4,2.1,0.8,3.1l-2.5,2.5c-1.1,1.1-1.1,3,0,4.1s3,1.1,4.1,0
	l2.5-2.5c1,0.5,2,0.7,3.1,0.8l0.9,3.3c0.4,1.6,2,2.5,3.6,2.1c1.6-0.4,2.5-2,2.1-3.6l-0.9-3.3c0.4-0.3,0.8-0.6,1.2-1s0.7-0.8,1-1.2
	l3.3,0.9c1.6,0.4,3.2-0.5,3.6-2.1C138.1,116.8,137.2,115.2,135.6,114.7L135.6,114.7z M125.6,116.6c-1.1,1.1-3,1.1-4.1,0
	s-1.1-3,0-4.1s3-1.1,4.1,0C126.8,113.6,126.8,115.5,125.6,116.6z M36.6,99.8l-3.3,0.9c-0.3-0.4-0.6-0.8-1-1.2
	c-0.4-0.4-0.8-0.7-1.2-1l0.9-3.3c0.4-1.6-0.5-3.2-2.1-3.6s-3.2,0.5-3.6,2.1l-0.9,3.4c-1.1,0.1-2.1,0.3-3,0.8l-2.5-2.4
	c-1.1-1.1-3-1.1-4.1,0s-1.1,3,0,4.1l2.4,2.4c-0.5,1-0.7,2-0.8,3.1L14,106c-1.6,0.4-2.5,2-2.1,3.6s2,2.5,3.6,2.1l3.3-0.9
	c0.3,0.4,0.6,0.9,1,1.3s0.8,0.7,1.2,1l-0.9,3.3c-0.4,1.6,0.5,3.2,2.1,3.6s3.2-0.5,3.6-2.1l0.9-3.3c1.1-0.1,2.1-0.4,3.1-0.8l2.4,2.4
	c1.1,1.1,3,1.1,4.1,0s1.1-3,0-4.1l-2.5-2.5c0.5-1,0.7-2,0.8-3.1l3.4-0.9c1.5-0.4,2.5-2,2.1-3.6C39.8,100.3,38.2,99.4,36.6,99.8z
	 M28.2,107.7c-1.1,1.1-3,1.1-4.1,0s-1.1-3,0-4.1s3-1.1,4.1,0S29.3,106.6,28.2,107.7z"/>
<path class="st1" d="M146.2,53.4c0-17.2-14-31.2-31.2-31.2c-1.5,0-2.9,0.1-4.4,0.3C102.2,11.1,89.1,4.3,74.8,4.3
	s-27.4,6.8-35.7,18.1c-1.5-0.2-2.9-0.3-4.4-0.3c-17.2,0-31.2,14-31.2,31.2s14,31.2,31.2,31.2c3.8,0,7.5-0.7,11.1-2
	c8.1,7,18.3,11,29.1,11c10.7,0,21-3.9,29.1-11c3.5,1.3,7.3,2,11.1,2C132.2,84.6,146.2,70.6,146.2,53.4z M102.2,71.6
	c-6.5,7.9-16.3,13-27.3,13s-20.8-5.1-27.3-13c-3.6,2.6-8,4.1-12.8,4.1c-12.3,0-22.3-10-22.3-22.3s10-22.3,22.3-22.3
	c3,0,5.9,0.6,8.5,1.7C49.1,21.2,61,13.2,74.8,13.2c13.9,0,25.7,8,31.6,19.5c2.6-1.1,5.5-1.7,8.5-1.7c12.3,0,22.3,10,22.3,22.3
	s-10,22.3-22.3,22.3C110.2,75.7,105.8,74.1,102.2,71.6z"/>
<path class="st0" d="M113.8,138.6l-1.1,0.3c-0.1-0.1-0.2-0.3-0.3-0.4c-0.1-0.1-0.3-0.2-0.4-0.3l0.3-1.1c0.1-0.5-0.2-1.1-0.7-1.2
	c-0.5-0.1-1.1,0.2-1.2,0.7l-0.3,1.1c-0.4,0-0.7,0.1-1,0.3l-0.8-0.8c-0.4-0.4-1-0.4-1.4,0s-0.4,1,0,1.4l0.8,0.8
	c-0.2,0.3-0.2,0.7-0.3,1l-1.1,0.3c-0.5,0.1-0.8,0.7-0.7,1.2c0.1,0.5,0.7,0.8,1.2,0.7l1.1-0.3c0.1,0.2,0.2,0.3,0.3,0.4
	c0.1,0.1,0.3,0.2,0.4,0.3l-0.3,1.1c-0.1,0.5,0.2,1.1,0.7,1.2c0.5,0.1,1.1-0.2,1.2-0.7l0.3-1.1c0.4,0,0.7-0.1,1-0.3l0.8,0.8
	c0.4,0.4,1,0.4,1.4,0s0.4-1,0-1.4l-0.8-0.8c0.2-0.3,0.3-0.7,0.3-1l1.1-0.3c0.5-0.1,0.8-0.7,0.7-1.2
	C114.8,138.8,114.3,138.5,113.8,138.6z M110.9,141.3c-0.4,0.4-1,0.4-1.4,0s-0.4-1,0-1.4s1-0.4,1.4,0S111.3,140.9,110.9,141.3z
	 M55.2,94.3l-1.1,0.3c-0.1-0.1-0.2-0.3-0.3-0.4s-0.3-0.2-0.4-0.3l0.3-1.1c0.1-0.5-0.2-1.1-0.7-1.2s-1.1,0.2-1.2,0.7l-0.3,1.1
	c-0.4,0-0.7,0.1-1,0.3l-0.8-0.8c-0.4-0.4-1-0.4-1.4,0s-0.4,1,0,1.4L49,95c-0.2,0.3-0.2,0.7-0.3,1l-1.1,0.3c-0.5,0.1-0.8,0.7-0.7,1.2
	s0.7,0.8,1.2,0.7l1.1-0.3c0.1,0.2,0.2,0.3,0.3,0.4s0.3,0.2,0.4,0.3l-0.3,1.1c-0.1,0.5,0.2,1.1,0.7,1.2s1.1-0.2,1.2-0.7l0.3-1.1
	c0.4,0,0.7-0.1,1-0.3l0.8,0.8c0.4,0.4,1,0.4,1.4,0s0.4-1,0-1.4l-0.8-0.8c0.2-0.3,0.3-0.7,0.3-1l1.1-0.3c0.5-0.1,0.8-0.7,0.7-1.2
	C56.3,94.5,55.8,94.2,55.2,94.3z M52.4,97c-0.4,0.4-1,0.4-1.4,0s-0.4-1,0-1.4s1-0.4,1.4,0S52.8,96.6,52.4,97z M111.6,94.3l-1.1,0.3
	c-0.1-0.1-0.2-0.3-0.3-0.4c-0.1-0.1-0.3-0.2-0.4-0.3l0.3-1.1c0.1-0.5-0.2-1.1-0.7-1.2s-1.1,0.2-1.2,0.7l-0.3,1.1
	c-0.4,0-0.7,0.1-1,0.3l-0.8-0.8c-0.4-0.4-1-0.4-1.4,0s-0.4,1,0,1.4l0.8,0.8c-0.2,0.3-0.2,0.7-0.3,1l-1.1,0.3
	c-0.5,0.1-0.8,0.7-0.7,1.2c0.1,0.5,0.7,0.8,1.2,0.7l1.1-0.3c0.1,0.2,0.2,0.3,0.3,0.4c0.1,0.1,0.3,0.2,0.4,0.3l-0.3,1.1
	c-0.1,0.5,0.2,1.1,0.7,1.2s1.1-0.2,1.2-0.7l0.3-1.1c0.4,0,0.7-0.1,1-0.3l0.8,0.8c0.4,0.4,1,0.4,1.4,0s0.4-1,0-1.4l-0.8-0.8
	c0.2-0.3,0.3-0.7,0.3-1l1.1-0.3c0.5-0.1,0.8-0.7,0.7-1.2C112.7,94.5,112.1,94.2,111.6,94.3z M108.8,97c-0.4,0.4-1,0.4-1.4,0
	s-0.4-1,0-1.4s1-0.4,1.4,0C109.1,96,109.1,96.6,108.8,97z M37.8,131.3l-1.1,0.3c-0.1-0.1-0.2-0.3-0.3-0.4c-0.1-0.1-0.3-0.2-0.4-0.3
	l0.3-1.1c0.1-0.5-0.2-1.1-0.7-1.2c-0.5-0.1-1.1,0.2-1.2,0.7l-0.3,1.1c-0.4,0-0.7,0.1-1,0.3l-0.8-0.8c-0.4-0.4-1-0.4-1.4,0
	s-0.4,1,0,1.4l0.8,0.8c-0.2,0.3-0.2,0.7-0.3,1l-1.1,0.3c-0.5,0.1-0.8,0.7-0.7,1.2c0.1,0.5,0.7,0.8,1.2,0.7l1.1-0.3
	c0.1,0.2,0.2,0.3,0.3,0.4c0.1,0.1,0.3,0.2,0.4,0.3l-0.3,1.1c-0.1,0.5,0.2,1.1,0.7,1.2c0.5,0.1,1.1-0.2,1.2-0.7l0.3-1.1
	c0.4,0,0.7-0.1,1-0.3l0.8,0.8c0.4,0.4,1,0.4,1.4,0s0.4-1,0-1.4l-0.8-0.8c0.2-0.3,0.3-0.7,0.3-1l1.1-0.3c0.5-0.1,0.8-0.7,0.7-1.2
	S38.4,131.2,37.8,131.3z M35,134c-0.4,0.4-1,0.4-1.4,0s-0.4-1,0-1.4s1-0.4,1.4,0S35.4,133.6,35,134z"/>
</svg>
