<?xml version="1.0" encoding="utf-8"?>
<!-- Generator: Adobe Illustrator 21.0.0, SVG Export Plug-In . SVG Version: 6.00 Build 0)  -->
<svg version="1.1" id="Layer_1" xmlns="http://www.w3.org/2000/svg" xmlns:xlink="http://www.w3.org/1999/xlink" x="0px" y="0px"
	 width="150px" height="150px" viewBox="0 0 150 150" style="enable-background:new 0 0 150 150;" xml:space="preserve">
<style type="text/css">
	.st0{fill:#FFFFFF;}
	.st1{fill:#9BDAF3;}
</style>
<path class="st0" d="M146.2,53.4c0-17.2-14-31.2-31.2-31.2c-1.5,0-2.9,0.1-4.4,0.3C102.2,11.1,89.1,4.3,74.8,4.3
	s-27.4,6.8-35.7,18.1c-1.5-0.2-2.9-0.3-4.4-0.3c-17.2,0-31.2,14-31.2,31.2s14,31.2,31.2,31.2c3.8,0,7.5-0.7,11.1-2
	c8.1,7,18.3,11,29.1,11c10.7,0,21-3.9,29.1-11c3.5,1.3,7.3,2,11.1,2C132.2,84.6,146.2,70.6,146.2,53.4z M102.2,71.6
	c-6.5,7.9-16.3,13-27.3,13s-20.8-5.1-27.3-13c-3.6,2.6-8,4.1-12.8,4.1c-12.3,0-22.3-10-22.3-22.3s10-22.3,22.3-22.3
	c3,0,5.9,0.6,8.5,1.7C49.1,21.2,61,13.2,74.8,13.2c13.9,0,25.7,8,31.6,19.5c2.6-1.1,5.5-1.7,8.5-1.7c12.3,0,22.3,10,22.3,22.3
	s-10,22.3-22.3,22.3C110.2,75.7,105.8,74.1,102.2,71.6z"/>
<path class="st1" d="M73.9,122.2l-1.7-1c0.1-0.3,0.1-0.6,0.1-0.9s0-0.6-0.1-0.9l1.7-1c0.8-0.5,1.1-1.5,0.6-2.3s-1.5-1.1-2.3-0.6
	l-1.7,1c-0.5-0.4-1-0.7-1.5-0.9v-2c0-0.9-0.7-1.7-1.7-1.7c-0.9,0-1.7,0.7-1.7,1.7v2c-0.6,0.2-1.1,0.5-1.5,0.9l-1.7-1
	c-0.8-0.5-1.8-0.2-2.3,0.6c-0.5,0.8-0.2,1.8,0.6,2.3l1.7,1c-0.1,0.3-0.1,0.6-0.1,0.9s0,0.6,0.1,0.9l-1.7,1c-0.8,0.5-1.1,1.5-0.6,2.3
	s1.5,1.1,2.3,0.6l1.7-1c0.5,0.4,1,0.7,1.6,0.9v2c0,0.9,0.7,1.7,1.7,1.7c0.9,0,1.7-0.7,1.7-1.7v-2c0.6-0.2,1.1-0.5,1.5-0.9l1.7,1
	c0.8,0.5,1.8,0.2,2.3-0.6C75,123.7,74.7,122.7,73.9,122.2z M67.4,122c-0.9,0-1.7-0.7-1.7-1.7s0.7-1.7,1.7-1.7c0.9,0,1.7,0.7,1.7,1.7
	S68.3,122,67.4,122z M116.4,103.7l-1.7-1c0.1-0.3,0.1-0.6,0.1-0.9s0-0.6-0.1-0.9l1.7-1c0.8-0.5,1.1-1.5,0.6-2.3s-1.5-1.1-2.3-0.6
	l-1.7,1c-0.5-0.4-1-0.7-1.5-0.9v-2c0-0.9-0.7-1.7-1.7-1.7c-0.9,0-1.7,0.7-1.7,1.7v2c-0.6,0.2-1.1,0.5-1.5,0.9l-1.7-1
	c-0.8-0.5-1.8-0.2-2.3,0.6c-0.5,0.8-0.2,1.8,0.6,2.3l1.7,1c-0.1,0.3-0.1,0.6-0.1,0.9s0,0.6,0.1,0.9l-1.7,1c-0.8,0.5-1.1,1.5-0.6,2.3
	s1.5,1.1,2.3,0.6l1.7-1c0.5,0.4,1,0.7,1.6,0.9v2c0,0.9,0.7,1.7,1.7,1.7c0.9,0,1.7-0.7,1.7-1.7v-2c0.6-0.2,1.1-0.5,1.5-0.9l1.7,1
	c0.8,0.5,1.8,0.2,2.3-0.6C117.4,105.1,117.2,104.1,116.4,103.7z M109.8,103.4c-0.9,0-1.7-0.7-1.7-1.7s0.7-1.7,1.7-1.7
	c0.9,0,1.7,0.7,1.7,1.7S110.7,103.4,109.8,103.4z M40.4,103.7l-1.7-1c0.1-0.3,0.1-0.6,0.1-0.9s0-0.6-0.1-0.9l1.7-1
	c0.8-0.5,1.1-1.5,0.6-2.3s-1.5-1.1-2.3-0.6L37,98c-0.5-0.4-1-0.7-1.5-0.9v-2c0-0.9-0.7-1.7-1.7-1.7c-0.9,0-1.7,0.7-1.7,1.7v2
	c-0.6,0.2-1.1,0.5-1.5,0.9L29,97c-0.8-0.5-1.8-0.2-2.3,0.6c-0.5,0.8-0.2,1.8,0.6,2.3l1.7,1c-0.1,0.3-0.1,0.6-0.1,0.9s0,0.6,0.1,0.9
	l-1.7,1c-0.8,0.5-1.1,1.5-0.6,2.3s1.5,1.1,2.3,0.6l1.7-1c0.5,0.4,1,0.7,1.6,0.9v2c0,0.9,0.7,1.7,1.7,1.7c0.9,0,1.7-0.7,1.7-1.7v-2
	c0.6-0.2,1.1-0.5,1.5-0.9l1.7,1c0.8,0.5,1.8,0.2,2.3-0.6C41.5,105.1,41.2,104.1,40.4,103.7z M33.9,103.4c-0.9,0-1.7-0.7-1.7-1.7
	s0.7-1.7,1.7-1.7c0.9,0,1.7,0.7,1.7,1.7S34.8,103.4,33.9,103.4z"/>
</svg>
