<?xml version="1.0" encoding="utf-8"?>
<!-- Generator: Adobe Illustrator 21.0.0, SVG Export Plug-In . SVG Version: 6.00 Build 0)  -->
<svg version="1.1" id="Layer_1" xmlns="http://www.w3.org/2000/svg" xmlns:xlink="http://www.w3.org/1999/xlink" x="0px" y="0px"
	 width="150px" height="150px" viewBox="0 0 150 150" style="enable-background:new 0 0 150 150;" xml:space="preserve">
<style type="text/css">
	.st0{fill:#FFFFFF;}
</style>
<path class="st0" d="M10.3,39.1h129.4c4,0,7.2-3.2,7.2-7.2s-3.2-7.2-7.2-7.2H10.3c-4,0-7.2,3.2-7.2,7.2S6.3,39.1,10.3,39.1z
	 M139.7,53.4H10.3c-4,0-7.2,3.2-7.2,7.2s3.2,7.2,7.2,7.2h129.4c4,0,7.2-3.2,7.2-7.2S143.7,53.4,139.7,53.4z M139.7,82.2H10.3
	c-4,0-7.2,3.2-7.2,7.2s3.2,7.2,7.2,7.2h129.4c4,0,7.2-3.2,7.2-7.2S143.7,82.2,139.7,82.2z M139.7,110.9H10.3c-4,0-7.2,3.2-7.2,7.2
	s3.2,7.2,7.2,7.2h129.4c4,0,7.2-3.2,7.2-7.2S143.7,110.9,139.7,110.9z"/>
</svg>
