<?xml version="1.0" encoding="utf-8"?>
<!-- Generator: Adobe Illustrator 21.0.0, SVG Export Plug-In . SVG Version: 6.00 Build 0)  -->
<svg version="1.1" id="Layer_1" xmlns="http://www.w3.org/2000/svg" xmlns:xlink="http://www.w3.org/1999/xlink" x="0px" y="0px"
	 width="150px" height="150px" viewBox="0 0 150 150" style="enable-background:new 0 0 150 150;" xml:space="preserve">
<style type="text/css">
	.st0{fill:#FBD20A;}
	.st1{fill:#FFFFFF;}
</style>
<path class="st0" d="M46.7,21.8c-1.9,0-3.4,1.5-3.4,3.4v6.7c0,1.9,1.5,3.4,3.4,3.4s3.4-1.5,3.4-3.4v-6.7
	C50,23.3,48.5,21.8,46.7,21.8z M77.6,34.6c-1.3-1.3-3.5-1.3-4.8,0L68,39.4c-1.3,1.3-1.3,3.5,0,4.8s3.5,1.3,4.8,0l4.8-4.8
	C79,38.1,79,35.9,77.6,34.6z M2.8,65.6c0,1.9,1.5,3.4,3.4,3.4h6.7c1.9,0,3.4-1.5,3.4-3.4s-1.5-3.4-3.4-3.4H6.2
	C4.3,62.2,2.8,63.7,2.8,65.6z M15.7,34.6c-1.3,1.3-1.3,3.5,0,4.8l4.8,4.8c1.3,1.3,3.5,1.3,4.8,0s1.3-3.5,0-4.8l-4.8-4.8
	C19.1,33.3,17,33.3,15.7,34.6z M32.5,74.8c-1.7-2.6-2.7-5.8-2.7-9.2c0-9.3,7.5-16.9,16.9-16.9c5.5,0,10.3,2.6,13.4,6.7l5.7-3.6
	C61.4,45.9,54.5,42,46.7,42c-13,0-23.6,10.6-23.6,23.6c0,4.3,1.2,8.3,3.1,11.7C26.2,77.3,32.5,74.8,32.5,74.8z"/>
<path class="st1" d="M125.7,47.5c-1,0-2,0.1-3,0.2c-5.7-7.8-14.8-12.5-24.6-12.5s-18.8,4.7-24.6,12.5c-1-0.1-2-0.2-3-0.2
	c-9.2,0-17.1,5.9-20.1,14c-8.1,1.6-15.4,6.2-20.4,13c-1.1-0.2-2.2-0.2-3.3-0.2c-13,0-23.6,10.6-23.6,23.6s10.6,23.6,23.6,23.6
	c2.9,0,5.7-0.5,8.4-1.5c6.1,5.3,13.9,8.3,22,8.3s15.9-3,22-8.3c2.7,1,5.5,1.5,8.4,1.5c13,0,23.6-10.6,23.6-23.6
	c0-1.4-0.1-2.8-0.4-4.1c2.7-1.2,5.2-2.8,7.5-4.8c2.4,0.9,5,1.4,7.6,1.4c11.8,0,21.5-9.6,21.5-21.5S137.5,47.5,125.7,47.5z
	 M87.4,114.7c-3.6,0-6.9-1.2-9.7-3.1c-4.9,6-12.3,9.8-20.7,9.8c-8.3,0-15.7-3.9-20.7-9.8c-2.7,1.9-6.1,3.1-9.7,3.1
	c-9.3,0-16.9-7.5-16.9-16.9c0-9.3,7.5-16.9,16.9-16.9c2.3,0,4.4,0.5,6.4,1.3c4.5-8.7,13.5-14.8,23.9-14.8c10.5,0,19.5,6,23.9,14.8
	c2-0.8,4.1-1.3,6.4-1.3c9.3,0,16.9,7.5,16.9,16.9C104.2,107.2,96.7,114.7,87.4,114.7z M125.7,84.3c-3.3,0-6.3-1.1-8.8-2.8
	c-2.2,2.6-4.9,4.8-7.9,6.3v0.6c-3.7-8.3-12-14.1-21.6-14.1c-1.1,0-2.2,0.1-3.3,0.2c-6.3-8.4-16-13.5-26.6-13.7
	c2.7-4.3,7.5-7.2,13-7.2c2.1,0,4,0.4,5.8,1.2c4.1-7.9,12.2-13.4,21.8-13.4c9.5,0,17.7,5.5,21.8,13.4c1.8-0.7,3.8-1.2,5.8-1.2
	c8.5,0,15.3,6.9,15.3,15.3S134.2,84.3,125.7,84.3z"/>
</svg>
