<?xml version="1.0" encoding="utf-8"?>
<!-- Generator: Adobe Illustrator 21.0.0, SVG Export Plug-In . SVG Version: 6.00 Build 0)  -->
<svg version="1.1" id="Layer_1" xmlns="http://www.w3.org/2000/svg" xmlns:xlink="http://www.w3.org/1999/xlink" x="0px" y="0px"
	 width="150px" height="150px" viewBox="0 0 150 150" style="enable-background:new 0 0 150 150;" xml:space="preserve">
<style type="text/css">
	.st0{fill:#FBD20A;}
	.st1{fill:#FFFFFF;stroke:#FFFFFF;stroke-miterlimit:10;}
</style>
<path class="st0" d="M61.7,20.9c2.5,0,4.5-2,4.5-4.5v-9c0-2.5-2-4.5-4.5-4.5s-4.5,2-4.5,4.5v9C57.2,18.8,59.2,20.9,61.7,20.9z
	 M96.8,32.8l6.4-6.4c1.8-1.8,1.8-4.6,0-6.4s-4.6-1.8-6.4,0l-6.4,6.4c-1.8,1.8-1.8,4.6,0,6.4C92.2,34.5,95.1,34.5,96.8,32.8z M7.5,66
	h9c2.5,0,4.5-2,4.5-4.5S19,57,16.5,57h-9C5,57,3,59,3,61.5S5,66,7.5,66z M102.3,61.5c0,2.5,2,4.5,4.5,4.5h9c2.5,0,4.5-2,4.5-4.5
	s-2-4.5-4.5-4.5h-9C104.4,57,102.3,59,102.3,61.5z M26.6,32.8c1.8,1.8,4.6,1.8,6.4,0s1.8-4.6,0-6.4L26.6,20c-1.8-1.8-4.6-1.8-6.4,0
	s-1.8,4.6,0,6.4L26.6,32.8z M115.9,75.1c-1.5,0-3,0.1-4.5,0.3c-4.7-6.5-11-11.4-18.2-14.5C92.8,43.8,78.9,30,61.7,30
	c-17.4,0-31.6,14.2-31.6,31.6c0,4.9,1.2,9.5,3.2,13.7C16.5,75.9,3,89.7,3,106.7c0,17.4,14.2,31.6,31.6,31.6c3.9,0,7.6-0.7,11.2-2.1
	c8.2,7.1,18.6,11.1,29.4,11.1c10.9,0,21.3-4,29.4-11.1c3.6,1.4,7.3,2.1,11.2,2.1c17.4,0,31.6-14.2,31.6-31.6
	C147.5,89.2,133.3,75.1,115.9,75.1z M61.7,38.9c11.2,0,20.5,8.2,22.2,19c-2.8-0.6-5.7-0.9-8.7-0.9c-13,0-25,5.6-33.4,15
	c-1.7-3.2-2.7-6.7-2.7-10.5C39.1,49,49.2,38.9,61.7,38.9z M115.9,129.2c-4.8,0-9.3-1.6-13-4.1c-6.6,8-16.5,13.2-27.7,13.2
	s-21-5.2-27.7-13.2c-3.7,2.6-8.1,4.1-13,4.1c-12.5,0-22.6-10.1-22.6-22.6C11.9,94.1,22,84,34.5,84c2.2,0,4.3,0.4,6.2,1
	c0.8,0.2,1.6,0.4,2.3,0.7c1.2-2.4,2.8-4.6,4.5-6.7c6.8-7.8,16.6-13,27.7-13c2.9,0,5.6,0.4,8.3,1c3,0.7,5.8,1.8,8.4,3.2
	c6.6,3.5,12,8.9,15.4,15.5c2.7-1.1,5.6-1.7,8.6-1.7c12.5,0,22.6,10.1,22.6,22.6S128.4,129.2,115.9,129.2L115.9,129.2z"/>
<path class="st1" d="M115.8,75c-1.5,0-3,0.1-4.5,0.3C102.9,63.9,89.6,57,75.2,57S47.5,63.9,39,75.4c-1.5-0.2-3-0.3-4.5-0.3
	C17.2,75,3,89.2,3,106.6s14.2,31.6,31.6,31.6c3.9,0,7.6-0.7,11.2-2.1c8.2,7.1,18.6,11.1,29.4,11.1c10.9,0,21.2-4,29.4-11.1
	c3.6,1.4,7.3,2.1,11.2,2.1c17.4,0,31.6-14.2,31.6-31.6S133.2,75,115.8,75z M115.8,129.2c-4.8,0-9.3-1.6-13-4.1
	c-6.6,8-16.5,13.2-27.7,13.2s-21-5.2-27.7-13.2c-3.7,2.6-8.1,4.1-13,4.1c-12.5,0-22.6-10.1-22.6-22.6S21.9,84,34.4,84
	c3,0,5.9,0.6,8.6,1.7C49,74,61,65.9,75,65.9s26,8.1,32,19.8c2.7-1.1,5.5-1.7,8.6-1.7c12.5,0,22.6,10.1,22.6,22.6
	S128.3,129.2,115.8,129.2z"/>
</svg>
