<?xml version="1.0" encoding="utf-8"?>
<!-- Generator: Adobe Illustrator 22.1.0, SVG Export Plug-In . SVG Version: 6.00 Build 0)  -->
<svg version="1.1" id="Layer_2" xmlns="http://www.w3.org/2000/svg" xmlns:xlink="http://www.w3.org/1999/xlink" x="0px" y="0px"
	 width="150px" height="150px" viewBox="0 0 150 150" style="enable-background:new 0 0 150 150;" xml:space="preserve">
<style type="text/css">
	.st0{fill:#FBD20A;}
	.st1{fill:#FFFFFF;}
</style>
<path class="st0" d="M51.7,67.8c-3.7-1.6-7-3.8-9.7-6.5c-2.7-2.7-4.9-5.9-6.5-9.7c-1.6-3.7-2.4-7.7-2.4-11.8c0-6.8,2-12.9,6.1-18.2
	s9.2-9,15.6-10.9c-3.3,5.2-4.9,10.9-4.9,16.9c0,5.8,1.4,11.1,4.3,16c2.8,4.9,6.7,8.8,11.6,11.6c4.9,2.8,10.2,4.3,16,4.3
	c1.8,0,3.5-0.1,5.2-0.4c-1.2,1.4-2.4,2.7-3.8,3.8l6.9,1.8c2.6-2.8,4.8-6,6.5-9.6c0.3-0.6,0.3-1.2,0.2-1.8c-0.1-0.6-0.4-1.2-0.8-1.6
	c-1-1-2.1-1.2-3.4-0.6c-3.5,1.6-7.1,2.4-10.8,2.4c-4.7,0-9-1.2-13-3.5c-4-2.3-7.1-5.4-9.4-9.4c-2.3-4-3.5-8.3-3.5-13
	c0-3.6,0.7-7.1,2.2-10.4c1.4-3.3,3.5-6.1,6.2-8.6c1-1,1.3-2.1,0.7-3.4c-0.5-1.3-1.5-1.9-2.9-1.8c-4.8,0.2-9.4,1.3-13.8,3.3
	c-4.3,2-8.1,4.6-11.2,7.8c-3.1,3.2-5.6,7-7.4,11.5c-1.8,4.4-2.7,9-2.7,13.9c0,4.9,1,9.7,2.9,14.1c1.9,4.5,4.5,8.4,7.8,11.6
	c2.9,2.9,6.2,5.2,10.1,7.1L51.7,67.8z"/>
<path class="st1" d="M115.8,75.3c-1.5,0-3,0.1-4.4,0.3c-8.4-11.4-21.6-18.3-36-18.3s-27.6,6.9-36,18.3c-1.5-0.2-3-0.3-4.4-0.3
	c-17.3,0-31.3,14.1-31.3,31.4s14.1,31.4,31.4,31.4c3.8,0,7.6-0.7,11.1-2c8.2,7.1,18.4,11,29.2,11s21.2-3.9,29.2-11
	c3.5,1.4,7.3,2,11.1,2c17.4,0,31.4-14.1,31.4-31.4S133.1,75.3,115.8,75.3z M115.8,129.2c-4.8,0-9.2-1.6-12.9-4.1
	c-6.6,7.9-16.4,13.1-27.5,13.1s-21-5.2-27.5-13.1c-3.6,2.5-8,4.1-12.9,4.1c-12.4,0-22.4-10.1-22.4-22.4s10.1-22.4,22.4-22.4
	c3.1,0,5.9,0.6,8.6,1.7c5.9-11.6,17.9-19.7,31.9-19.7s25.9,8,31.9,19.7c2.6-1.1,5.5-1.7,8.6-1.7c12.4,0,22.4,10.1,22.4,22.4
	S128.2,129.2,115.8,129.2z"/>
</svg>
