<?xml version="1.0" encoding="utf-8"?>
<!-- Generator: Adobe Illustrator 21.0.0, SVG Export Plug-In . SVG Version: 6.00 Build 0)  -->
<svg version="1.1" id="Layer_1" xmlns="http://www.w3.org/2000/svg" xmlns:xlink="http://www.w3.org/1999/xlink" x="0px" y="0px"
	 width="150px" height="150px" viewBox="0 0 150 150" style="enable-background:new 0 0 150 150;" xml:space="preserve">
<style type="text/css">
	.st0{fill:#FBD208;}
	.st1{fill:#FFFFFF;stroke:#FFFFFF;stroke-width:3.0139;stroke-miterlimit:10;}
</style>
<path class="st0" d="M61.3,20.8c2.5,0,4.5-2,4.5-4.5v-9c0-2.5-2-4.5-4.5-4.5s-4.5,2-4.5,4.5v9C56.8,18.7,58.8,20.8,61.3,20.8z
	 M96.4,32.7l6.4-6.4c1.8-1.8,1.8-4.6,0-6.4s-4.6-1.8-6.4,0L90,26.3c-1.8,1.8-1.8,4.6,0,6.4C91.8,34.4,94.7,34.4,96.4,32.7z M7,66h9
	c2.5,0,4.5-2,4.5-4.5S18.5,57,16,57H7c-2.5,0-4.5,2-4.5,4.5S4.5,66,7,66z M102,61.4c0,2.5,2,4.5,4.5,4.5h9c2.5,0,4.5-2,4.5-4.5
	s-2-4.5-4.5-4.5h-9C104,56.9,102,58.9,102,61.4z M26.1,32.7c1.8,1.8,4.6,1.8,6.4,0s1.8-4.6,0-6.4l-6.4-6.4c-1.8-1.8-4.6-1.8-6.4,0
	s-1.8,4.6,0,6.4L26.1,32.7z M115.5,75c-1.5,0-3,0.1-4.5,0.3c-4.7-6.5-11.1-11.4-18.2-14.6c-0.4-17.1-14.4-31-31.6-31
	c-17.4,0-31.6,14.2-31.6,31.6c0,4.9,1.2,9.5,3.2,13.7C16,75.8,2.5,89.6,2.5,106.6c0,17.4,14.2,31.6,31.6,31.6
	c3.9,0,7.7-0.7,11.2-2.1c8.2,7.1,18.6,11.1,29.5,11.1s21.3-4,29.5-11.1c3.6,1.4,7.4,2.1,11.2,2.1c17.4,0,31.6-14.2,31.6-31.6
	C147.2,89.2,133,75,115.5,75z M61.3,38.8c11.2,0,20.5,8.2,22.2,19c-2.8-0.6-5.7-0.9-8.7-0.9c-13,0-25,5.6-33.4,15
	c-1.7-3.2-2.7-6.7-2.7-10.5C38.7,49,48.8,38.8,61.3,38.8z M115.5,129.2c-4.8,0-9.3-1.6-13-4.1c-6.6,8-16.5,13.2-27.7,13.2
	s-21.1-5.2-27.7-13.2c-3.7,2.6-8.1,4.1-13,4.1c-12.5,0-22.6-10.1-22.6-22.6C11.5,94.2,21.7,84,34.1,84c2.2,0,4.3,0.4,6.3,1
	c0.8,0.2,1.6,0.4,2.3,0.7c1.2-2.4,2.8-4.6,4.5-6.7c6.7-7.9,16.5-13,27.6-13c2.9,0,5.6,0.4,8.3,1c3,0.7,5.8,1.8,8.4,3.2
	c6.6,3.5,12,8.9,15.4,15.6c2.7-1.1,5.6-1.7,8.6-1.7c12.5,0,22.6,10.1,22.6,22.6C138.1,119.1,128,129.2,115.5,129.2z"/>
<path class="st1" d="M147.2,106.6c0-17.4-14.2-31.6-31.6-31.6c-1.5,0-3,0.1-4.5,0.3c-8.4-11.5-21.8-18.4-36.2-18.4
	c-14.5,0-27.8,6.9-36.2,18.4c-1.5-0.2-3-0.3-4.5-0.3C16.7,75,2.5,89.2,2.5,106.6s14.2,31.6,31.6,31.6c3.9,0,7.7-0.7,11.2-2.1
	c8.2,7.1,18.6,11.1,29.5,11.1s21.3-4,29.5-11.1c3.6,1.4,7.4,2.1,11.2,2.1C133,138.3,147.2,124.1,147.2,106.6L147.2,106.6z
	 M102.5,125.1c-6.6,8-16.5,13.2-27.7,13.2s-21.1-5.2-27.7-13.2c-3.7,2.6-8.1,4.1-13,4.1c-12.5,0-22.6-10.1-22.6-22.6
	S21.7,84,34.1,84c3.1,0,6,0.6,8.6,1.7c6-11.7,18-19.8,32.1-19.8c14,0,26.1,8.1,32.1,19.8c2.7-1.1,5.6-1.7,8.6-1.7
	c12.5,0,22.6,10.1,22.6,22.6s-10.1,22.6-22.6,22.6C110.7,129.2,106.2,127.7,102.5,125.1z"/>
</svg>
