<?xml version="1.0" encoding="utf-8"?>
<!-- Generator: Adobe Illustrator 21.0.0, SVG Export Plug-In . SVG Version: 6.00 Build 0)  -->
<svg version="1.1" id="Layer_1" xmlns="http://www.w3.org/2000/svg" xmlns:xlink="http://www.w3.org/1999/xlink" x="0px" y="0px"
	 width="150px" height="150px" viewBox="0 0 150 150" style="enable-background:new 0 0 150 150;" xml:space="preserve">
<style type="text/css">
	.st0{fill:#FFFFFF;}
	.st1{fill:#9BDAF3;}
</style>
<path class="st0" d="M113.6,20.8c-1.4,0-2.8,0.1-4.2,0.3C101.4,10.2,88.7,3.7,75,3.7s-26.4,6.5-34.4,17.5c-1.4-0.2-2.8-0.3-4.2-0.3
	c-16.6,0-30,13.5-30,30s13.5,30,30,30c3.7,0,7.3-0.7,10.7-2c7.8,6.8,17.6,10.6,28,10.6c10.3,0,20.2-3.8,28-10.6c3.4,1.3,7,2,10.7,2
	c16.6,0,30-13.5,30-30S130.2,20.8,113.6,20.8z M113.6,72.3c-4.6,0-8.8-1.5-12.3-3.9C95,76,85.6,80.9,75,80.9S55,76,48.7,68.4
	c-3.5,2.5-7.7,3.9-12.3,3.9c-11.9,0-21.5-9.6-21.5-21.5s9.6-21.5,21.5-21.5c2.9,0,5.6,0.6,8.2,1.6c5.6-11,17.1-18.7,30.4-18.7
	s24.8,7.7,30.5,18.8c2.5-1,5.3-1.6,8.2-1.6c11.9,0,21.5,9.6,21.5,21.5S125.5,72.3,113.6,72.3z"/>
<path class="st1" d="M67.7,118.6c0,4,3.3,7.3,7.3,7.3s7.3-3.3,7.3-7.3S75,104,75,104S67.7,114.6,67.7,118.6z M16.1,112.5
	c0,4,3.3,7.3,7.3,7.3s7.3-3.3,7.3-7.3s-7.3-14.6-7.3-14.6S16.1,108.5,16.1,112.5z M104.2,123.5c0,4,3.3,7.3,7.3,7.3s7.3-3.3,7.3-7.3
	s-7.3-14.6-7.3-14.6S104.2,119.4,104.2,123.5z M123.1,106.1c0,4,3.3,7.3,7.3,7.3c4,0,7.3-3.3,7.3-7.3s-7.3-14.6-7.3-14.6
	S123.1,102,123.1,106.1z M40.8,101.6c0,4,3.3,7.3,7.3,7.3s7.3-3.3,7.3-7.3S48.1,87,48.1,87S40.8,97.6,40.8,101.6z M48.1,134.4
	c0,4,3.3,7.3,7.3,7.3s7.3-3.3,7.3-7.3s-7.3-14.6-7.3-14.6S48.1,130.4,48.1,134.4z M89.6,100.4c0,4,3.3,7.3,7.3,7.3s7.3-3.3,7.3-7.3
	s-7.3-14.6-7.3-14.6S89.6,96.4,89.6,100.4z"/>
</svg>
