<?xml version="1.0" encoding="utf-8"?>
<!-- Generator: Adobe Illustrator 21.0.0, SVG Export Plug-In . SVG Version: 6.00 Build 0)  -->
<svg version="1.1" id="Layer_1" xmlns="http://www.w3.org/2000/svg" xmlns:xlink="http://www.w3.org/1999/xlink" x="0px" y="0px"
	 width="150px" height="150px" viewBox="0 0 150 150" style="enable-background:new 0 0 150 150;" xml:space="preserve">
<style type="text/css">
	.st0{fill:#FFFFFF;}
	.st1{fill:#9BDAF3;}
</style>
<path class="st0" d="M116.6,22.9c-1.5,0-3,0.1-4.5,0.3C103.5,11.6,89.9,4.6,75.3,4.6c-14.7,0-28.2,7-36.8,18.7
	C37,23.1,35.5,23,34,23C16.2,22.9,1.8,37.3,1.8,55S16.2,87.2,34,87.2c3.9,0,7.8-0.7,11.4-2.1c8.3,7.2,18.9,11.3,29.9,11.3
	c11.1,0,21.6-4,29.9-11.3c3.6,1.4,7.5,2.1,11.4,2.1c17.7,0,32.1-14.4,32.1-32.1S134.3,22.9,116.6,22.9L116.6,22.9z M116.6,78
	c-4.9,0-9.4-1.6-13.2-4.2c-6.7,8.1-16.8,13.4-28.1,13.4c-11.4,0-21.4-5.3-28.1-13.4C43.4,76.4,38.9,78,34,78c-12.7,0-23-10.3-23-23
	s10.3-22.9,23-22.9c3.1,0,6,0.6,8.7,1.7C48.8,22,61,13.7,75.3,13.7s26.5,8.2,32.6,20.1c2.7-1.1,5.6-1.7,8.7-1.7
	c12.7,0,22.9,10.3,22.9,22.9S129.2,78,116.6,78z"/>
<path class="st1" d="M102.8,133.1c0,5.1,4.1,9.2,9.2,9.2s9.2-4.1,9.2-9.2s-9.2-18.4-9.2-18.4S102.8,128,102.8,133.1z M29.4,114.7
	c0,5.1,4.1,9.2,9.2,9.2s9.2-4.1,9.2-9.2s-9.2-18.4-9.2-18.4S29.4,109.6,29.4,114.7z"/>
</svg>
