<?xml version="1.0" encoding="utf-8"?>
<!-- Generator: Adobe Illustrator 21.0.0, SVG Export Plug-In . SVG Version: 6.00 Build 0)  -->
<svg version="1.1" id="Layer_1" xmlns="http://www.w3.org/2000/svg" xmlns:xlink="http://www.w3.org/1999/xlink" x="0px" y="0px"
	 width="150px" height="150px" viewBox="0 0 150 150" style="enable-background:new 0 0 150 150;" xml:space="preserve">
<style type="text/css">
	.st0{fill:#FFFFFF;}
	.st1{fill:#9BDAF3;}
</style>
<path class="st0" d="M113.6,18c-1.4,0-2.8,0.1-4.2,0.3C101.5,7.5,89,1,75.4,1s-26.1,6.5-34,17.3C40,18.1,38.6,18,37.2,18
	C20.9,18,7.6,31.3,7.6,47.7s13.3,29.7,29.7,29.7c3.6,0,7.2-0.7,10.5-1.9c7.7,6.7,17.4,10.4,27.6,10.4s20-3.7,27.6-10.4
	c3.3,1.3,6.9,1.9,10.5,1.9c16.4,0,29.7-13.3,29.7-29.7S130,18,113.6,18z M113.6,68.9c-4.5,0-8.7-1.5-12.2-3.9
	c-6.2,7.5-15.5,12.4-26,12.4s-19.8-4.9-26-12.4c-3.4,2.4-7.6,3.9-12.2,3.9C25.5,68.9,16,59.4,16,47.7s9.5-21.2,21.2-21.2
	c2.9,0,5.6,0.6,8.1,1.6c5.6-11,16.9-18.6,30.1-18.6s24.5,7.6,30.1,18.6c2.5-1,5.2-1.6,8.1-1.6c11.7,0,21.2,9.5,21.2,21.2
	S125.3,68.9,113.6,68.9z"/>
<path class="st1" d="M100.9,119.8c0,4.7,3.8,8.5,8.5,8.5s8.5-3.8,8.5-8.5s-8.5-17-8.5-17S100.9,115.1,100.9,119.8z M33,102.8
	c0,4.7,3.8,8.5,8.5,8.5s8.5-3.8,8.5-8.5s-8.5-17-8.5-17S33,98.1,33,102.8z M82.4,135.7l-3.2-0.9c-0.1-1-0.3-2-0.8-2.9l2.3-2.3
	c1.1-1.1,1.1-2.9,0-3.9c-1.1-1.1-2.8-1.1-3.9,0l-2.3,2.3c-0.9-0.4-1.9-0.7-2.9-0.8l-0.9-3.2c-0.4-1.5-1.9-2.4-3.4-2s-2.4,1.9-2,3.4
	l0.9,3.2c-0.4,0.3-0.8,0.6-1.2,1c-0.4,0.4-0.7,0.8-1,1.2l-3.2-0.9c-1.5-0.4-3,0.5-3.4,2s0.5,3,2,3.4l3.2,0.9c0.1,1,0.3,2,0.8,2.9
	l-2.3,2.3c-1.1,1.1-1.1,2.8,0,3.9s2.8,1.1,3.9,0l2.3-2.3c0.9,0.5,1.9,0.7,2.9,0.8L71,147c0.4,1.5,1.9,2.4,3.4,2s2.4-1.9,2-3.4
	l-0.9-3.2c0.4-0.3,0.8-0.6,1.2-1c0.4-0.4,0.7-0.8,1-1.2l3.2,0.9c1.5,0.4,3-0.5,3.4-2S83.9,136.1,82.4,135.7z M72.9,137.4
	c-1.1,1.1-2.9,1.1-3.9,0c-1.1-1.1-1.1-2.8,0-3.9s2.9-1.1,3.9,0C74,134.6,74,136.3,72.9,137.4z M26.3,125l-3.2-0.9
	c-0.1-1-0.3-2-0.8-2.9l2.3-2.3c1.1-1.1,1.1-2.9,0-3.9c-1.1-1.1-2.8-1.1-3.9,0l-2.3,2.3c-0.9-0.4-1.9-0.7-2.9-0.8l-0.9-3.2
	c-0.4-1.5-1.9-2.4-3.4-2s-2.4,1.9-2,3.4l0.9,3.2c-0.4,0.3-0.8,0.6-1.2,1s-0.7,0.8-1,1.2l-3.2-0.9c-1.5-0.4-3,0.5-3.4,2s0.5,3,2,3.4
	l3.2,0.9c0.1,1,0.3,2,0.8,2.9L5,130.7c-1.1,1.1-1.1,2.8,0,3.9s2.8,1.1,3.9,0l2.3-2.3c0.9,0.5,1.9,0.7,2.9,0.8l0.8,3.2
	c0.4,1.5,1.9,2.4,3.4,2s2.4-1.9,2-3.4l-0.9-3.2c0.4-0.3,0.8-0.6,1.2-1c0.4-0.4,0.7-0.8,1-1.2l3.2,0.9c1.5,0.4,3-0.5,3.4-2
	C28.7,126.9,27.8,125.4,26.3,125z M16.8,126.8c-1.1,1.1-2.9,1.1-3.9,0c-1.1-1.1-1.1-2.8,0-3.9s2.9-1.1,3.9,0
	C17.9,123.9,17.9,125.7,16.8,126.8z M146.6,94.1l-3.2-0.9c-0.1-1-0.3-2-0.8-2.9L145,88c1.1-1.1,1.1-2.9,0-3.9
	c-1.1-1.1-2.8-1.1-3.9,0l-2.3,2.3c-0.9-0.4-1.9-0.7-2.9-0.8l-0.9-3.2c-0.4-1.5-1.9-2.4-3.4-2s-2.4,1.9-2,3.4l0.9,3.2
	c-0.4,0.3-0.8,0.6-1.2,1s-0.7,0.8-1,1.2l-3.2-0.9c-1.5-0.4-3,0.5-3.4,2s0.5,3,2,3.4l3.2,0.9c0.1,1,0.3,2,0.8,2.9l-2.3,2.3
	c-1.1,1.1-1.1,2.8,0,3.9s2.8,1.1,3.9,0l2.3-2.3c0.9,0.5,1.9,0.7,2.9,0.8l0.8,3.2c0.4,1.5,1.9,2.4,3.4,2s2.4-1.9,2-3.4l-0.9-3.2
	c0.4-0.3,0.8-0.6,1.2-1s0.7-0.8,1-1.2l3.2,0.9c1.5,0.4,3-0.5,3.4-2S148.1,94.5,146.6,94.1z M137.1,95.9c-1.1,1.1-2.9,1.1-3.9,0
	c-1.1-1.1-1.1-2.8,0-3.9s2.9-1.1,3.9,0C138.2,93,138.2,94.8,137.1,95.9z"/>
</svg>
