<?xml version="1.0" encoding="utf-8"?>
<!-- Generator: Adobe Illustrator 21.0.0, SVG Export Plug-In . SVG Version: 6.00 Build 0)  -->
<svg version="1.1" id="Layer_1" xmlns="http://www.w3.org/2000/svg" xmlns:xlink="http://www.w3.org/1999/xlink" x="0px" y="0px"
	 width="150px" height="150px" viewBox="0 0 150 150" style="enable-background:new 0 0 150 150;" xml:space="preserve">
<style type="text/css">
	.st0{fill:#9BDAF3;}
	.st1{fill:#FFFFFF;}
</style>
<path class="st0" d="M51.4,105.6c0,5.1,4.1,9.2,9.2,9.2s9.2-4.1,9.2-9.2s-9.2-18.4-9.2-18.4S51.4,100.6,51.4,105.6z"/>
<path class="st1" d="M116.3,21.5c-1.5,0-3,0.1-4.5,0.3C103.2,10.2,89.7,3.2,75,3.2s-28.2,7-36.8,18.7c-1.5-0.2-3-0.3-4.5-0.3
	C16,21.5,1.6,35.9,1.6,53.6S16,85.8,33.7,85.8c3.9,0,7.8-0.7,11.4-2.1C53.4,90.9,64,94.9,75,94.9c11.1,0,21.6-4,29.9-11.3
	c3.6,1.4,7.5,2.1,11.4,2.1c17.7,0,32.1-14.4,32.1-32.1S134,21.5,116.3,21.5z M116.3,76.6c-4.9,0-9.4-1.6-13.2-4.2
	C96.4,80.5,86.4,85.8,75,85.8s-21.4-5.3-28.1-13.4c-3.7,2.6-8.3,4.2-13.2,4.2c-12.7,0-22.9-10.3-22.9-22.9s10.2-23,22.9-23
	c3.1,0,6,0.6,8.7,1.7C48.5,20.6,60.7,12.3,75,12.3s26.5,8.2,32.6,20.1c2.7-1.1,5.6-1.7,8.7-1.7c12.7,0,22.9,10.3,22.9,22.9
	S129,76.6,116.3,76.6z"/>
<path class="st0" d="M118.7,137.7c0,5.1,4.1,9.2,9.2,9.2c5.1,0,9.2-4.1,9.2-9.2s-9.2-18.4-9.2-18.4S118.7,132.6,118.7,137.7z
	 M84.9,123.9c0,5.1,4.1,9.2,9.2,9.2s9.2-4.1,9.2-9.2s-9.2-18.4-9.2-18.4S84.9,118.8,84.9,123.9z M17.8,127.1c0,5.1,4.1,9.2,9.2,9.2
	s9.2-4.1,9.2-9.2S27,108.7,27,108.7S17.8,122,17.8,127.1z M54.6,133.1l-1.1-0.3c0-0.4-0.1-0.7-0.3-1L54,131c0.4-0.4,0.4-1,0-1.4
	s-1-0.4-1.4,0l-0.8,0.8c-0.3-0.2-0.7-0.2-1-0.3l-0.3-1.1c-0.1-0.5-0.7-0.8-1.2-0.7s-0.8,0.7-0.7,1.2l0.3,1.1
	c-0.1,0.1-0.3,0.2-0.4,0.3c-0.1,0.1-0.2,0.3-0.3,0.4l-1.1-0.3c-0.5-0.1-1.1,0.2-1.2,0.7c-0.1,0.5,0.2,1.1,0.7,1.2l1.1,0.3
	c0,0.4,0.1,0.7,0.3,1l-0.8,0.8c-0.4,0.4-0.4,1,0,1.4s1,0.4,1.4,0l0.8-0.8c0.3,0.2,0.7,0.2,1,0.3l0.3,1.1c0.1,0.5,0.7,0.8,1.2,0.7
	s0.8-0.7,0.7-1.2l-0.3-1.1c0.1-0.1,0.3-0.2,0.4-0.3c0.1-0.1,0.2-0.3,0.3-0.4l1.1,0.3c0.5,0.1,1.1-0.2,1.2-0.7
	C55.4,133.8,55.1,133.3,54.6,133.1z M51.2,133.8c-0.4,0.4-1,0.4-1.4,0s-0.4-1,0-1.4s1-0.4,1.4,0S51.6,133.4,51.2,133.8z
	 M120.1,103.1l-1.1-0.3c0-0.4-0.1-0.7-0.3-1l0.8-0.8c0.4-0.4,0.4-1,0-1.4s-1-0.4-1.4,0l-0.8,0.8c-0.3-0.2-0.7-0.2-1-0.3L116,99
	c-0.1-0.5-0.7-0.8-1.2-0.7c-0.5,0.1-0.8,0.7-0.7,1.2l0.3,1.1c-0.1,0.1-0.3,0.2-0.4,0.3c-0.1,0.1-0.2,0.3-0.3,0.4l-1.1-0.3
	c-0.5-0.1-1.1,0.2-1.2,0.7s0.2,1.1,0.7,1.2l1.1,0.3c0,0.4,0.1,0.7,0.3,1l-0.8,0.8c-0.4,0.4-0.4,1,0,1.4s1,0.4,1.4,0l0.8-0.8
	c0.3,0.2,0.7,0.2,1,0.3l0.3,1.1c0.1,0.5,0.7,0.8,1.2,0.7c0.5-0.1,0.8-0.7,0.7-1.2l-0.3-1.1c0.1-0.1,0.3-0.2,0.4-0.3
	c0.1-0.1,0.2-0.3,0.3-0.4l1.1,0.3c0.5,0.1,1.1-0.2,1.2-0.7C120.9,103.7,120.6,103.2,120.1,103.1z M116.8,103.7c-0.4,0.4-1,0.4-1.4,0
	s-0.4-1,0-1.4s1-0.4,1.4,0C117.1,102.7,117.1,103.3,116.8,103.7z M35.8,98.3L34.6,98c0-0.4-0.1-0.7-0.3-1l0.8-0.8
	c0.4-0.4,0.4-1,0-1.4s-1-0.4-1.4,0L33,95.5c-0.3-0.2-0.7-0.2-1-0.3l-0.3-1.1c-0.1-0.5-0.7-0.8-1.2-0.7c-0.5,0.1-0.8,0.7-0.7,1.2
	l0.3,1.1c-0.1,0.1-0.3,0.2-0.4,0.3c-0.1,0.1-0.2,0.3-0.3,0.4l-1.1-0.3c-0.5-0.1-1.1,0.2-1.2,0.7s0.2,1.1,0.7,1.2l1.1,0.3
	c0,0.4,0.1,0.7,0.3,1l-0.8,0.8c-0.4,0.4-0.4,1,0,1.4s1,0.4,1.4,0l0.8-0.8c0.3,0.2,0.7,0.2,1,0.3l0.3,1.1c0.1,0.5,0.7,0.8,1.2,0.7
	c0.5-0.1,0.8-0.7,0.7-1.2l-0.3-1.1c0.1-0.1,0.3-0.2,0.4-0.3c0.1-0.1,0.2-0.3,0.3-0.4l1.1,0.3c0.5,0.1,1.1-0.2,1.2-0.7
	C36.6,98.9,36.3,98.4,35.8,98.3z M32.4,98.9c-0.4,0.4-1,0.4-1.4,0s-0.4-1,0-1.4s1-0.4,1.4,0C32.8,97.9,32.8,98.5,32.4,98.9z"/>
</svg>
