<?xml version="1.0" encoding="utf-8"?>
<!-- Generator: Adobe Illustrator 21.0.0, SVG Export Plug-In . SVG Version: 6.00 Build 0)  -->
<svg version="1.1" id="Layer_1" xmlns="http://www.w3.org/2000/svg" xmlns:xlink="http://www.w3.org/1999/xlink" x="0px" y="0px"
	 width="150px" height="150px" viewBox="0 0 150 150" style="enable-background:new 0 0 150 150;" xml:space="preserve">
<style type="text/css">
	.st0{fill:#9BDAF3;}
	.st1{fill:#FFFFFF;}
</style>
<path class="st0" d="M43.3,77.5H46v25.4h-2.7V77.5z M43.3,111.4H46v25.4h-2.7V111.4z M43.3,105.8H46v2.7h-2.7V105.8z M16.6,87.2h2.7
	v25.4h-2.7V87.2z M16.6,121.1h2.7v25.4h-2.7V121.1z M16.6,115.4h2.7v2.7h-2.7V115.4z M72.8,87.1h2.7v25.4h-2.7V87.1z M72.8,121h2.7
	v25.4h-2.7V121z M72.8,115.3h2.7v2.7h-2.7V115.3z M107.6,77.5h2.7v17h-2.7V77.5z M107.6,103h2.7v25.4h-2.7V103z M107.6,97.3h2.7v2.7
	h-2.7V97.3z M128.1,79.8h2.7v25.4h-2.7V79.8z M128.1,113.7h2.7v25.4h-2.7V113.7z M128.1,108h2.7v2.7h-2.7V108z"/>
<path class="st1" d="M114.9,22.6c-1.5,0-3,0.1-4.5,0.3C102,11.4,88.7,4.5,74.2,4.5s-27.8,6.9-36.3,18.4c-1.5-0.2-3-0.3-4.5-0.3
	C16,22.6,1.8,36.8,1.8,54.3S16,86,33.4,86c3.9,0,7.7-0.7,11.2-2.1C52.9,91,63.3,95,74.2,95s21.3-4,29.5-11.1
	c3.6,1.4,7.4,2.1,11.2,2.1c17.5,0,31.7-14.2,31.7-31.7S132.4,22.6,114.9,22.6z M114.9,76.9c-4.8,0-9.3-1.6-13-4.1
	C95.3,80.8,85.4,86,74.2,86s-21.1-5.2-27.8-13.2c-3.7,2.6-8.2,4.1-13,4.1c-12.5,0-22.6-10.1-22.6-22.6s10.1-22.6,22.6-22.6
	c3.1,0,6,0.6,8.6,1.7c6-11.7,18.1-19.8,32.1-19.8c14.1,0,26.1,8.1,32.1,19.8c2.7-1.1,5.6-1.7,8.6-1.7c12.5,0,22.6,10.1,22.6,22.6
	S127.4,76.9,114.9,76.9z"/>
</svg>
