<?xml version="1.0" encoding="utf-8"?>
<!-- Generator: Adobe Illustrator 21.0.0, SVG Export Plug-In . SVG Version: 6.00 Build 0)  -->
<svg version="1.1" id="Layer_1" xmlns="http://www.w3.org/2000/svg" xmlns:xlink="http://www.w3.org/1999/xlink" x="0px" y="0px"
	 width="150px" height="150px" viewBox="0 0 150 150" style="enable-background:new 0 0 150 150;" xml:space="preserve">
<style type="text/css">
	.st0{fill:#FBD20A;}
</style>
<path class="st0" d="M75,36.4c-21.3,0-38.6,17.3-38.6,38.6s17.3,38.6,38.6,38.6s38.6-17.3,38.6-38.6S96.3,36.4,75,36.4z M75,102.6
	c-15.2,0-27.6-12.4-27.6-27.6S59.8,47.4,75,47.4s27.6,12.4,27.6,27.6S90.2,102.6,75,102.6z M75,3.2c-3,0-5.5,2.5-5.5,5.5v11
	c0,3,2.5,5.5,5.5,5.5s5.5-2.5,5.5-5.5v-11C80.5,5.7,78,3.2,75,3.2z M75,124.7c-3,0-5.5,2.5-5.5,5.5v11c0,3,2.5,5.5,5.5,5.5
	s5.5-2.5,5.5-5.5v-11C80.5,127.1,78,124.7,75,124.7z M125.7,24.3c-2.2-2.2-5.6-2.2-7.8,0l-7.8,7.8c-2.2,2.2-2.2,5.6,0,7.8
	s5.6,2.2,7.8,0l7.8-7.8C127.9,29.9,127.9,26.4,125.7,24.3z M39.9,110.1c-2.2-2.2-5.6-2.2-7.8,0l-7.8,7.8c-2.2,2.2-2.2,5.6,0,7.8
	s5.6,2.2,7.8,0l7.8-7.8C42,115.8,42,112.3,39.9,110.1z M3.2,75c0,3,2.5,5.5,5.5,5.5h11c3,0,5.5-2.5,5.5-5.5s-2.5-5.5-5.5-5.5h-11
	C5.7,69.5,3.2,72,3.2,75z M124.7,75c0,3,2.5,5.5,5.5,5.5h11c3,0,5.5-2.5,5.5-5.5s-2.5-5.5-5.5-5.5h-11C127.1,69.5,124.7,72,124.7,75
	z M24.3,24.3c-2.2,2.2-2.2,5.6,0,7.8l7.8,7.8c2.2,2.2,5.6,2.2,7.8,0s2.2-5.6,0-7.8l-7.8-7.8C29.9,22.1,26.4,22.1,24.3,24.3z
	 M110.1,110.1c-2.2,2.2-2.2,5.6,0,7.8l7.8,7.8c2.2,2.2,5.6,2.2,7.8,0s2.2-5.6,0-7.8l-7.8-7.8C115.8,108,112.3,108,110.1,110.1z"/>
</svg>
