<?xml version="1.0" encoding="utf-8"?>
<!-- Generator: Adobe Illustrator 21.0.0, SVG Export Plug-In . SVG Version: 6.00 Build 0)  -->
<svg version="1.1" id="Layer_1" xmlns="http://www.w3.org/2000/svg" xmlns:xlink="http://www.w3.org/1999/xlink" x="0px" y="0px"
	 width="150px" height="150px" viewBox="0 0 150 150" style="enable-background:new 0 0 150 150;" xml:space="preserve">
<style type="text/css">
	.st0{fill:#FFFFFF;}
	.st1{fill:#FBD20A;}
	.st2{fill:#9BDAF3;}
</style>
<path class="st0" d="M115.8,20.6c-1.5,0-3,0.1-4.5,0.3C102.9,9.3,89.5,2.4,75,2.4S47.1,9.3,38.6,20.9c-1.5-0.2-3-0.3-4.5-0.3
	c-17.5,0-31.8,14.2-31.8,31.8s14.2,31.8,31.8,31.8c3.9,0,7.7-0.7,11.3-2.1c3.5,3,7.4,5.4,11.6,7.2l7.1-7.1
	c-6.7-2.2-12.5-6-16.9-11.3c-3.7,2.6-8.2,4.2-13,4.2c-12.5,0-22.7-10.2-22.7-22.7s10.2-22.7,22.7-22.7c3.1,0,6,0.6,8.6,1.7
	c6-11.7,18.1-19.9,32.2-19.9s26.2,8.1,32.2,19.9c2.7-1.1,5.6-1.7,8.6-1.7c12.5,0,22.7,10.2,22.7,22.7S128.4,75,115.8,75
	c-4.9,0-9.3-1.6-13-4.2c-2.9,3.5-6.6,6.4-10.7,8.7l-3.8,11.4c5.9-1.9,11.5-4.8,16.2-9c3.6,1.4,7.4,2.1,11.3,2.1
	c17.5,0,31.8-14.2,31.8-31.8S133.3,20.6,115.8,20.6z"/>
<path class="st1" d="M55.4,103.7l9.5,9.6L55.4,142l28.7-28.7l-9.6-9.6L84.1,75L55.4,103.7z"/>
<path class="st2" d="M84.4,138.5c0,5,4.1,9.1,9.1,9.1s9.1-4.1,9.1-9.1s-9.1-18.1-9.1-18.1S84.4,133.5,84.4,138.5z M14.4,137
	c0,5,4.1,9.1,9.1,9.1s9.1-4.1,9.1-9.1s-9.1-18.1-9.1-18.1S14.4,132,14.4,137z M98.4,105.5c0,5,4.1,9.1,9.1,9.1s9.1-4.1,9.1-9.1
	s-9.1-18.1-9.1-18.1S98.4,100.5,98.4,105.5z M120.4,123.4c0,5,4.1,9.1,9.1,9.1s9.1-4.1,9.1-9.1s-9.1-18.1-9.1-18.1
	S120.4,118.4,120.4,123.4z M30.1,105.5c0,5,4.1,9.1,9.1,9.1s9.1-4.1,9.1-9.1s-9.1-18.1-9.1-18.1S30.1,100.5,30.1,105.5z"/>
</svg>
