<?xml version="1.0" encoding="utf-8"?>
<!-- Generator: Adobe Illustrator 21.0.0, SVG Export Plug-In . SVG Version: 6.00 Build 0)  -->
<svg version="1.1" id="Layer_1" xmlns="http://www.w3.org/2000/svg" xmlns:xlink="http://www.w3.org/1999/xlink" x="0px" y="0px"
	 width="150px" height="150px" viewBox="0 0 150 150" style="enable-background:new 0 0 150 150;" xml:space="preserve">
<style type="text/css">
	.st0{fill:#FFFFFF;}
</style>
<path class="st0" d="M97.9,55.1c0,16.4-18.2,15.3-18.2,26.6v2.5H65.1v-3.1c0-17.5,16.1-16.3,16.1-24.6c0-3.6-2.6-5.8-7.1-5.8
	c-4.2,0-8.2,2-11.9,6.2L52.1,49c5.8-6.8,13.3-10.8,23.7-10.8C90.5,38.2,97.9,46.1,97.9,55.1z M81.7,102.6c0,5.1-4.1,9.2-9.1,9.2
	s-9.1-4.2-9.1-9.2s4.1-9.1,9.1-9.1S81.7,97.6,81.7,102.6z M75,143.2c-37.6,0-68.2-30.6-68.2-68.2S37.4,6.8,75,6.8
	s68.2,30.6,68.2,68.2S112.6,143.2,75,143.2z M75,15.8c-32.6,0-59.2,26.6-59.2,59.2s26.6,59.2,59.2,59.2s59.2-26.6,59.2-59.2
	S107.6,15.8,75,15.8z"/>
</svg>
