<?xml version="1.0" encoding="utf-8"?>
<!-- Generator: Adobe Illustrator 22.1.0, SVG Export Plug-In . SVG Version: 6.00 Build 0)  -->
<svg version="1.1" id="Layer_3" xmlns="http://www.w3.org/2000/svg" xmlns:xlink="http://www.w3.org/1999/xlink" x="0px" y="0px"
	 width="150px" height="150px" viewBox="0 0 150 150" style="enable-background:new 0 0 150 150;" xml:space="preserve">
<style type="text/css">
	.st0{fill:#FFFFFF;}
</style>
<path class="st0" d="M45.7,65.4c-16.5,0-25-7.3-32.6-13.8c-2.1-1.8-2.3-4.9-0.5-7c1.8-2.1,4.9-2.3,7-0.5
	c7.1,6.1,13.3,11.4,26.1,11.4c12.8,0,19-5.3,26.1-11.4c7.5-6.5,16.1-13.8,32.6-13.8c16.5,0,25,7.3,32.6,13.8c2.1,1.8,2.3,4.9,0.5,7
	c-1.8,2.1-4.9,2.3-7,0.5c-7.1-6.1-13.3-11.4-26.1-11.4c-12.8,0-19,5.3-26.1,11.4C70.7,58,62.2,65.4,45.7,65.4z M78.2,78.8
	c7.1-6.1,13.3-11.4,26.1-11.4c12.8,0,19,5.3,26.1,11.4c2.1,1.8,5.2,1.5,7-0.5c1.8-2.1,1.5-5.2-0.5-7c-7.5-6.5-16.1-13.8-32.6-13.8
	s-25,7.3-32.6,13.8c-7.1,6.1-13.3,11.4-26.1,11.4c-12.8,0-19-5.3-26.1-11.4c-2.1-1.8-5.2-1.5-7,0.5c-1.8,2.1-1.5,5.2,0.5,7
	c7.5,6.5,16.1,13.8,32.6,13.8C62.2,92.6,70.7,85.2,78.2,78.8z M78.2,106c7.1-6.1,13.3-11.4,26.1-11.4c12.8,0,19,5.3,26.1,11.4
	c2.1,1.8,5.2,1.5,7-0.5c1.8-2.1,1.5-5.2-0.5-7c-7.5-6.5-16.1-13.8-32.6-13.8s-25,7.3-32.6,13.8c-7.1,6.1-13.3,11.4-26.1,11.4
	c-12.8,0-19-5.3-26.1-11.4l0,0c-2.1-1.8-5.2-1.5-7,0.5c-1.8,2.1-1.5,5.2,0.5,7c7.5,6.5,16.1,13.8,32.6,13.8
	C62.2,119.8,70.7,112.4,78.2,106z"/>
</svg>
